<svg width="132" height="32" viewBox="0 0 132 32" fill="none" xmlns="http://www.w3.org/2000/svg">
<path fill-rule="evenodd" clip-rule="evenodd" d="M43.0847 3.91895C37.2565 3.91895 32.7612 8.50358 32.7612 14.0404C32.7612 19.62 37.2185 24.2025 43.0847 24.2025C47.0075 24.2025 50.3156 22.1533 52.0782 19.1329L52.4663 18.4678L54.5271 14.9248C54.5645 15.1133 54.8263 15.4902 55.1629 15.641L52.9836 19.3535C54.7646 22.2528 57.9892 24.2025 61.8156 24.2025C67.684 24.2025 72.1792 19.6178 72.1792 14.0404C72.1792 8.54298 67.7231 3.91895 61.8156 3.91895C57.9167 3.91895 54.6144 5.97136 52.8555 8.98546L52.4689 9.64794L50.4133 13.1156L50.0393 11.9472L51.9358 8.74344C50.1474 5.87118 46.9228 3.91895 43.0847 3.91895ZM56.8163 14.9332H55.8305C55.5001 14.9332 55.2295 14.6623 55.2572 14.3305C55.542 10.9254 58.224 8.20281 61.8428 8.20281C65.4615 8.20281 68.1903 10.9255 68.4803 14.3305C68.5085 14.6623 68.2379 14.9332 67.9074 14.9332H66.8538C66.4687 17.3726 64.4499 19.2666 61.8156 19.2666C59.1812 19.2666 57.1948 17.3726 56.8163 14.9332ZM48.123 14.9332C48.0042 15.6856 47.73 16.3861 47.3302 16.9952C47.119 17.2812 46.9252 17.5264 46.7539 17.7201C45.8434 18.672 44.5607 19.2666 43.0847 19.2666C40.4503 19.2666 38.4639 17.3726 38.0855 14.9332H37.0331C36.7027 14.9332 36.4321 14.6623 36.4598 14.3305C36.7446 10.9254 39.4266 8.20281 43.0453 8.20281C46.6641 8.20281 49.3929 10.9255 49.6829 14.3305C49.7111 14.6623 49.4405 14.9332 49.11 14.9332H48.123Z" fill="#515FFF"/>
<path d="M43.0371 7.61394C39.168 7.61394 36.3041 10.5325 36.0016 14.1566C35.9499 14.776 36.4575 15.2473 37.0285 15.2473H49.0982C49.669 15.2473 50.1773 14.776 50.1246 14.1559C49.8162 10.5283 46.9022 7.61394 43.0371 7.61394Z" stroke="#515FFF" stroke-width="0.902971"/>
<path d="M61.811 7.61394C57.942 7.61394 55.0781 10.5325 54.7755 14.1566C54.7238 14.776 55.2314 15.2473 55.8024 15.2473H67.8721C68.4429 15.2473 68.9512 14.776 68.8985 14.1559C68.5902 10.5283 65.6762 7.61394 61.811 7.61394Z" stroke="#515FFF" stroke-width="0.902971"/>
<path d="M11.4065 23.934C12.5911 23.934 14.0206 23.6871 14.9745 23.1933C15.1561 23.0992 15.2586 22.9059 15.2586 22.7014V19.3333C15.2586 18.8595 14.7214 18.5495 14.276 18.7112C13.5081 18.99 12.6311 19.1472 11.8927 19.1472C9.948 19.1472 8.71385 17.9411 8.71385 15.8681V9.87407C8.71385 9.5416 8.98336 9.27208 9.31583 9.27208H14.6566C14.9891 9.27208 15.2586 9.00257 15.2586 8.6701V5.3511C15.2586 5.01863 14.9891 4.74912 14.6566 4.74912H9.31583C8.98336 4.74912 8.71385 4.4796 8.71385 4.14714V0.601981C8.71385 0.269516 8.44433 0 8.11187 0H4.00524C3.67278 0 3.40326 0.269516 3.40326 0.60198V4.14714C3.40326 4.4796 3.13375 4.74912 2.80128 4.74912H0.601981C0.269516 4.74912 0 5.01863 0 5.3511V8.6701C0 9.00257 0.269516 9.27208 0.60198 9.27208H2.80128C3.13375 9.27208 3.40326 9.5416 3.40326 9.87407V16.0188C3.40326 20.6926 6.05856 23.934 11.4065 23.934Z" fill="#515FFF"/>
<path d="M23.7804 23.4064C24.1128 23.4064 24.3824 23.1368 24.3824 22.8044V12.8905C24.3824 10.6667 25.6539 9.30978 27.7482 9.30978C28.3949 9.30978 29.0913 9.42649 29.7493 9.65992C30.188 9.81557 30.7027 9.5146 30.7027 9.04909V5.29145C30.7027 5.05337 30.5632 4.8353 30.3392 4.75463C29.4454 4.43275 28.3106 4.25913 27.262 4.25913C21.7645 4.25913 19.0718 7.91519 19.0718 12.702V22.8044C19.0718 23.1368 19.3413 23.4064 19.6737 23.4064H23.7804Z" fill="#515FFF"/>
<path d="M79.6444 32C79.9768 32 80.2463 31.7305 80.2463 31.398V23.4164C80.2463 22.9181 80.8273 22.6238 81.2619 22.8675C82.4481 23.5328 83.8198 23.934 85.2577 23.934C91.0171 23.934 94.9813 19.8634 94.9813 14.0212C94.9813 8.66902 90.6805 4.22144 84.9586 4.22144C79.1992 4.22144 74.9358 8.40518 74.9358 14.0212V31.398C74.9358 31.7305 75.2053 32 75.5377 32H79.6444ZM84.9586 18.8834C82.2285 18.8834 80.2463 16.6973 80.2463 14.0589C80.2463 11.4205 82.2285 9.27208 84.9586 9.27208C87.6886 9.27208 89.6708 11.4205 89.6708 14.0589C89.6708 16.6973 87.6886 18.8834 84.9586 18.8834Z" fill="#515FFF"/>
<path d="M107.692 23.8963C111.409 23.8963 114.356 22.1732 116.024 19.1428C116.182 18.8564 116.061 18.5012 115.769 18.353L112.759 16.8221C112.46 16.6704 112.098 16.7941 111.915 17.0741C110.995 18.4778 109.459 19.2603 107.654 19.2603C105.25 19.2603 103.459 17.9009 102.864 15.7975C102.764 15.4433 103.049 15.1143 103.417 15.1143H115.878C116.211 15.1143 116.48 14.8447 116.48 14.5123V13.5312C116.48 8.44288 113.077 4.07067 107.205 4.07067C101.483 4.07067 97.594 8.51826 97.594 13.9081C97.594 19.8634 101.932 23.8963 107.692 23.8963ZM103.675 12.1366C103.296 12.1366 103.009 11.7874 103.142 11.4322C103.722 9.88996 105.147 8.74441 107.168 8.74441C109.146 8.74441 110.601 9.88693 111.072 11.4746C111.174 11.8199 110.891 12.1366 110.531 12.1366H103.675Z" fill="#515FFF"/>
<path d="M125.078 23.4064C125.41 23.4064 125.68 23.1368 125.68 22.8044V12.8905C125.68 10.6667 126.951 9.30978 129.046 9.30978C129.692 9.30978 130.389 9.42649 131.047 9.65992C131.485 9.81557 132 9.5146 132 9.04909V5.29145C132 5.05337 131.86 4.8353 131.636 4.75463C130.743 4.43275 129.608 4.25913 128.559 4.25913C123.062 4.25913 120.369 7.91519 120.369 12.702V22.8044C120.369 23.1368 120.639 23.4064 120.971 23.4064H125.078Z" fill="#515FFF"/>
</svg>
